<svg width="40" height="40" viewBox="0 0 40 40" fill="none" xmlns="http://www.w3.org/2000/svg">
<g clip-path="url(#clip0_304:968)">
<path d="M15 15.6666L20.9248 20.1102C21.3432 20.424 21.9329 20.3623 22.2773 19.9687L33.3333 7.33325" stroke="#27AE60" stroke-width="4" stroke-linecap="round"/>
<path d="M35 19C35 22.1342 34.0183 25.1896 32.1927 27.7372C30.3671 30.2848 27.7894 32.1965 24.8216 33.204C21.8538 34.2114 18.6449 34.2639 15.6457 33.3541C12.6465 32.4443 10.0077 30.6179 8.0997 28.1314C6.19175 25.6449 5.11058 22.6233 5.00803 19.4908C4.90548 16.3583 5.78671 13.2724 7.52796 10.6664C9.2692 8.0605 11.783 6.06542 14.7162 4.96141C17.6495 3.85741 20.8549 3.69993 23.8823 4.51111" stroke="#27AE60" stroke-width="4" stroke-linecap="round"/>
</g>
<defs>
<clipPath id="clip0_304:968">
<rect width="40" height="40" fill="white"/>
</clipPath>
</defs>
</svg>
